# xmcd
#
# Track frame offsets: 
#        150
#        12200
#        30000
#        43187
#        63200
#        73797
#        85290
#        95635
#        106387
#        117990
#        127627
#        137737
#        149330
#        161000
#        172650
#        185277
#        196762
#        209420
#        222432
#        233322
#        247077
#        258555
#        270867
#        282332
#
# Disc length: 3913 seconds
#
# Revision: 2
# Processed by: cddbd v1.5.2PL0 Copyright (c) Steve Scherf et al.
# Submitted via: ExactAudioCopy v0.99pb5
#
DISCID=4b0f4718
DTITLE=Screamin Jay Hawkins - Spellbound 1955-1974
DYEAR=1990
DGENRE=Rock
TTITLE0=Voodoo
TTITLE1=You Put A Spell On Me
TTITLE2=Makaha Waves
TTITLE3=There's Too Many Teardrops
TTITLE4=I Put A Spell On You
TTITLE5=Two Can Play This Game
TTITLE6=Shattered
TTITLE7=You're An Exception To The Rule
TTITLE8=I'm Not Made Of Clay
TTITLE9=All Night
TTITLE10=Mountain Jive
TTITLE11=I'll Be There
TTITLE12=You're All My Life To Me
TTITLE13=Well I Tried
TTITLE14=Even Though
TTITLE15=Talk About Me
TTITLE16=In My Front Room
TTITLE17=This Is All
TTITLE18=What That Is
TTITLE19=She Put The Whamee On Me
TTITLE20=I Put A Spell On You
TTITLE21=Two Can Play This Game
TTITLE22=Shattered
TTITLE23=You're An Exception To The Rule
EXTD=
EXTT0=
EXTT1=
EXTT2=
EXTT3=
EXTT4=
EXTT5=
EXTT6=
EXTT7=
EXTT8=
EXTT9=
EXTT10=
EXTT11=
EXTT12=
EXTT13=
EXTT14=
EXTT15=
EXTT16=
EXTT17=
EXTT18=
EXTT19=
EXTT20=
EXTT21=
EXTT22=
EXTT23=
PLAYORDER=
